<?xml version="1.0" standalone="no"?><!-- Generator: Gravit.io --><svg xmlns="http://www.w3.org/2000/svg" xmlns:xlink="http://www.w3.org/1999/xlink" style="isolation:isolate" viewBox="496 207 700 204" width="700" height="204"><path d=" M 496 311 C 496 255.808 540.808 211 596 211 C 651.192 211 696 255.808 696 311 C 696 366.192 651.192 411 596 411 C 540.808 411 496 366.192 496 311 Z " fill="rgb(235,235,235)"/><path d=" M 746 307 C 746 251.808 790.808 207 846 207 C 901.192 207 946 251.808 946 307 C 946 362.192 901.192 407 846 407 C 790.808 407 746 362.192 746 307 Z " fill="rgb(235,235,235)"/><path d=" M 996 307 C 996 251.808 1040.808 207 1096 207 C 1151.192 207 1196 251.808 1196 307 C 1196 362.192 1151.192 407 1096 407 C 1040.808 407 996 362.192 996 307 Z " fill="rgb(235,235,235)"/></svg>