<?xml version="1.0" standalone="no"?><!-- Generator: Gravit.io --><svg xmlns="http://www.w3.org/2000/svg" xmlns:xlink="http://www.w3.org/1999/xlink" style="isolation:isolate" viewBox="308 169.615 744 383.77" width="744" height="383.77"><path d=" M 680 169.615 C 749.988 205.086 798 277.73 798 361.5 C 798 445.27 749.988 517.914 680 553.385 C 610.012 517.914 562 445.27 562 361.5 C 562 277.73 610.012 205.086 680 169.615 Z " fill="rgb(235,235,235)"/><path d=" M 426 169.615 C 495.988 205.086 544 277.73 544 361.5 C 544 445.27 495.988 517.914 426 553.385 C 356.012 517.914 308 445.27 308 361.5 C 308 277.73 356.012 205.086 426 169.615 Z " fill="rgb(235,235,235)"/><path d=" M 934 169.615 C 1003.988 205.086 1052 277.73 1052 361.5 C 1052 445.27 1003.988 517.914 934 553.385 C 864.012 517.914 816 445.27 816 361.5 C 816 277.73 864.012 205.086 934 169.615 Z " fill="rgb(235,235,235)"/></svg>